<?xml version="1.0" encoding="iso-8859-1"?>
<!-- Generator: Adobe Illustrator 18.1.1, SVG Export Plug-In . SVG Version: 6.00 Build 0)  -->
<svg version="1.1" id="Capa_1" xmlns="http://www.w3.org/2000/svg" xmlns:xlink="http://www.w3.org/1999/xlink" x="0px" y="0px"
	 viewBox="0 0 56.94 56.94" style="enable-background:new 0 0 56.94 56.94;" xml:space="preserve">
<g>
	<g>
		<circle style="fill:#ea580c;" cx="28.951" cy="14.093" r="4.094"/>
		<path style="fill:#ea580c;" d="M49.428,50.665c-2.604-1.445-4.719-3.619-6.629-5.881l0.226-0.131l-0.375-0.455
			c-1.509-1.834-3.525-4.576-3.638-7.228c-0.016-0.418-0.106-0.813-0.268-1.172v-0.002c-0.215-0.979-0.422-1.972-0.631-2.962
			c-0.943-4.482-1.916-9.117-3.498-12.771l-0.055-0.096c-0.68-0.939-1.764-1.435-3.135-1.435c-1.517,0-3.073,0.613-3.552,0.894
			c-0.209,0.122-0.393,0.255-0.568,0.393l-5.677-2.209c-0.726-0.284-1.496-0.238-2.154,0.061c-1.08-3.84-1.233-5.366-1.242-5.883
			c1.582-1.293,1.951-4.668,1.24-7.198c-0.869-3.099-3.413-5.106-5.67-4.473c-2.256,0.633-3.384,3.67-2.515,6.77
			c0.707,2.522,2.768,5.203,4.784,5.499c0.279,0.511,1.062,2.169,2.204,6.328c-0.094,0.148-0.177,0.306-0.243,0.475
			c-0.556,1.43,0.151,3.039,1.58,3.596l6.509,2.533c0.018,0.046,0.037,0.092,0.055,0.138c-1.794,1.963-4.861,2.987-7.77,2.991
			c-1.533,0.001-2.775,1.246-2.773,2.779c0.001,1.533,1.244,2.773,2.777,2.773c0.001,0,0.002,0,0.003,0
			c3.761-0.002,7.16-1.119,9.765-2.986c0.646,2.16,1.154,4.273,1.584,6.209c-2.219,2.773-3.312,5.982-3.156,9.289l0.029,0.654
			l0.486-0.152c0.182,3.031,0.814,5.52,3.104,8.711c2.068,2.881,6.89,0.113,4.796-2.803c-1.482-2.064-3.197-4.736-3.287-7.34
			l0.702-0.219l0.021-0.347c0.063-1.021,0.455-2.026,1.203-3.082c0.168,0.017,0.34,0.021,0.51,0.019
			c0.742,1.69,1.805,3.422,3.334,5.428l0.271,0.355l0.215-0.125c2.383,3.053,5.223,5.957,8.631,7.848
			C49.758,57.201,52.558,52.404,49.428,50.665z M17.487,13.335c-0.251,0.069-0.542-0.193-0.653-0.587
			c-0.11-0.395,0.002-0.771,0.252-0.84c0.25-0.07,0.542,0.192,0.651,0.586C17.848,12.889,17.736,13.265,17.487,13.335z
			 M17.475,11.36l-0.961,0.271c-1.562,0.081-3.723-2.309-4.465-4.954C11.297,3.998,12.18,1.4,14.016,0.884
			c1.838-0.516,3.943,1.245,4.695,3.924C19.453,7.452,18.853,10.616,17.475,11.36z M29.09,30.538c1.97-1.021,4.83-2.703,4.932-3.894
			l-1.005-0.087c-0.061,0.472-1.93,1.772-4.233,2.996c-0.391-1.212-0.832-2.432-1.33-3.64c1.529-1.057,3.103-2.038,3.455-2.083
			l0.06-1.008c-0.613-0.034-2.417,1.106-3.904,2.13c-0.375-1.007-0.924-3.334,1.324-4.653c0.33-0.193,1.717-0.754,3.04-0.754
			c1.024,0,1.795,0.328,2.285,0.974c1.526,3.553,2.485,8.114,3.413,12.524c0.08,0.385,0.164,0.768,0.244,1.152l-7.075,0.829
			C29.947,33.581,29.553,32.074,29.09,30.538z M38.043,46.413c-1.381-1.848-2.342-3.451-3.008-5.014l-0.209-0.488l-0.529,0.031
			c-0.223,0.01-0.44,0.004-0.658-0.021l-0.44-0.056l-0.263,0.357c-0.834,1.141-1.312,2.25-1.45,3.383l-3.881,1.203
			c0.023-2.859,1.059-5.629,3.021-8.041l0.23-0.283l-0.078-0.357c-0.08-0.362-0.166-0.737-0.252-1.112l7.057-0.828
			c0.061,0.285,0.119,0.574,0.182,0.854l0.052,0.152c0.112,0.248,0.176,0.523,0.188,0.818c0.113,2.73,1.951,5.439,3.492,7.367
			L38.043,46.413z"/>
		<circle style="fill:#ea580c;" cx="8.021" cy="17.422" r="1.878"/>
	</g>
</g>
<g>
</g>
<g>
</g>
<g>
</g>
<g>
</g>
<g>
</g>
<g>
</g>
<g>
</g>
<g>
</g>
<g>
</g>
<g>
</g>
<g>
</g>
<g>
</g>
<g>
</g>
<g>
</g>
<g>
</g>
</svg>
