<?xml version="1.0" encoding="UTF-8"?>
<svg xmlns="http://www.w3.org/2000/svg" xmlns:xlink="http://www.w3.org/1999/xlink" width="44px" height="48px" viewBox="0 0 44 48" version="1.1">
<g id="surface1">
<path style=" stroke:none;fill-rule:nonzero;fill:rgb(54.901961%,78.431373%,29.411765%);fill-opacity:1;" d="M 20.019531 0.609375 C 21.214844 -0.0703125 22.773438 -0.0703125 23.96875 0.609375 C 29.984375 3.976562 36 7.335938 42.011719 10.703125 C 43.140625 11.335938 43.898438 12.582031 43.886719 13.871094 L 43.886719 34.121094 C 43.894531 35.464844 43.0625 36.742188 41.871094 37.359375 C 35.878906 40.707031 29.886719 44.058594 23.894531 47.40625 C 22.671875 48.097656 21.082031 48.042969 19.898438 47.292969 C 18.101562 46.261719 16.304688 45.234375 14.507812 44.207031 C 14.140625 43.988281 13.726562 43.816406 13.464844 43.464844 C 13.695312 43.15625 14.105469 43.121094 14.4375 42.984375 C 15.1875 42.75 15.875 42.371094 16.566406 42.003906 C 16.738281 41.882812 16.953125 41.929688 17.121094 42.035156 C 18.65625 42.90625 20.179688 43.804688 21.722656 44.671875 C 22.050781 44.859375 22.382812 44.609375 22.664062 44.453125 C 28.546875 41.160156 34.433594 37.878906 40.316406 34.585938 C 40.535156 34.480469 40.652344 34.253906 40.636719 34.015625 C 40.640625 27.335938 40.636719 20.65625 40.636719 13.976562 C 40.664062 13.707031 40.507812 13.460938 40.261719 13.351562 C 34.289062 10.019531 28.320312 6.683594 22.347656 3.347656 C 22.136719 3.203125 21.855469 3.203125 21.644531 3.347656 C 15.671875 6.683594 9.703125 10.023438 3.730469 13.355469 C 3.488281 13.464844 3.324219 13.707031 3.351562 13.976562 C 3.351562 20.65625 3.351562 27.335938 3.351562 34.019531 C 3.332031 34.253906 3.460938 34.476562 3.675781 34.582031 C 5.269531 35.476562 6.867188 36.363281 8.460938 37.257812 C 9.359375 37.734375 10.460938 38.019531 11.453125 37.652344 C 12.324219 37.34375 12.9375 36.460938 12.921875 35.539062 C 12.929688 28.898438 12.917969 22.257812 12.925781 15.617188 C 12.90625 15.324219 13.1875 15.078125 13.476562 15.105469 C 14.242188 15.101562 15.007812 15.097656 15.773438 15.109375 C 16.09375 15.101562 16.316406 15.417969 16.277344 15.714844 C 16.273438 22.398438 16.285156 29.082031 16.269531 35.765625 C 16.273438 37.546875 15.535156 39.484375 13.871094 40.355469 C 11.820312 41.40625 9.289062 41.183594 7.265625 40.175781 C 5.511719 39.308594 3.839844 38.289062 2.117188 37.359375 C 0.921875 36.746094 0.09375 35.464844 0.105469 34.121094 L 0.105469 13.871094 C 0.0898438 12.554688 0.878906 11.285156 2.042969 10.664062 C 8.035156 7.3125 14.027344 3.960938 20.019531 0.609375 Z M 20.019531 0.609375 "/>
<path style=" stroke:none;fill-rule:nonzero;fill:rgb(54.901961%,78.431373%,29.411765%);fill-opacity:1;" d="M 25.246094 14.636719 C 27.863281 14.46875 30.660156 14.539062 33.011719 15.8125 C 34.832031 16.789062 35.84375 18.84375 35.875 20.847656 C 35.824219 21.117188 35.539062 21.265625 35.277344 21.246094 C 34.519531 21.246094 33.761719 21.257812 33.003906 21.242188 C 32.679688 21.253906 32.492188 20.960938 32.453125 20.679688 C 32.234375 19.71875 31.707031 18.769531 30.796875 18.308594 C 29.398438 17.613281 27.777344 17.648438 26.25 17.664062 C 25.136719 17.722656 23.941406 17.816406 22.996094 18.464844 C 22.273438 18.957031 22.054688 19.949219 22.3125 20.746094 C 22.554688 21.320312 23.222656 21.503906 23.769531 21.675781 C 26.921875 22.492188 30.257812 22.410156 33.347656 23.484375 C 34.625 23.921875 35.878906 24.773438 36.316406 26.101562 C 36.890625 27.878906 36.636719 30.003906 35.359375 31.429688 C 34.324219 32.605469 32.816406 33.246094 31.3125 33.59375 C 29.3125 34.035156 27.234375 34.046875 25.199219 33.847656 C 23.289062 33.632812 21.300781 33.136719 19.824219 31.847656 C 18.5625 30.761719 17.949219 29.070312 18.007812 27.4375 C 18.023438 27.164062 18.300781 26.972656 18.566406 26.992188 C 19.332031 26.988281 20.09375 26.984375 20.859375 26.996094 C 21.164062 26.972656 21.390625 27.234375 21.40625 27.519531 C 21.546875 28.433594 21.890625 29.390625 22.695312 29.933594 C 24.25 30.925781 26.195312 30.855469 27.972656 30.882812 C 29.445312 30.820312 31.097656 30.800781 32.300781 29.835938 C 32.933594 29.285156 33.121094 28.367188 32.949219 27.574219 C 32.765625 26.90625 32.058594 26.597656 31.453125 26.390625 C 28.34375 25.417969 24.96875 25.773438 21.890625 24.667969 C 20.640625 24.230469 19.429688 23.40625 18.949219 22.132812 C 18.28125 20.332031 18.585938 18.105469 19.996094 16.726562 C 21.375 15.355469 23.359375 14.824219 25.246094 14.636719 Z M 25.246094 14.636719 "/>
</g>
</svg>
