<?xml version="1.0" encoding="UTF-8"?>
<svg xmlns="http://www.w3.org/2000/svg" xmlns:xlink="http://www.w3.org/1999/xlink" width="48px" height="48px" viewBox="0 0 48 48" version="1.1">
<defs>
<filter id="alpha" filterUnits="objectBoundingBox" x="0%" y="0%" width="100%" height="100%">
  <feColorMatrix type="matrix" in="SourceGraphic" values="0 0 0 0 1 0 0 0 0 1 0 0 0 0 1 0 0 0 1 0"/>
</filter>
<mask id="mask0">
  <g filter="url(#alpha)">
<rect x="0" y="0" width="48" height="48" style="fill:rgb(0%,0%,0%);fill-opacity:0.2;stroke:none;"/>
  </g>
</mask>
<clipPath id="clip1">
  <rect x="0" y="0" width="48" height="48"/>
</clipPath>
<g id="surface5" clip-path="url(#clip1)">
<path style=" stroke:none;fill-rule:nonzero;fill:rgb(0%,0%,0%);fill-opacity:1;" d="M 44.074219 21.765625 L 26.230469 3.925781 C 25 2.691406 23 2.691406 21.769531 3.925781 L 3.925781 21.765625 C 2.695312 23 2.695312 24.996094 3.925781 26.226562 L 21.769531 44.070312 C 23 45.300781 25 45.300781 26.230469 44.070312 L 44.074219 26.226562 C 45.304688 24.996094 45.304688 23 44.074219 21.765625 Z M 44.074219 21.765625 "/>
</g>
<mask id="mask1">
  <g filter="url(#alpha)">
<rect x="0" y="0" width="48" height="48" style="fill:rgb(0%,0%,0%);fill-opacity:0.2;stroke:none;"/>
  </g>
</mask>
<clipPath id="clip2">
  <rect x="0" y="0" width="48" height="48"/>
</clipPath>
<g id="surface8" clip-path="url(#clip2)">
<path style=" stroke:none;fill-rule:nonzero;fill:rgb(100%,100%,100%);fill-opacity:1;" d="M 24 2.25 C 23.195312 2.25 22.386719 2.558594 21.769531 3.175781 L 3.925781 21.019531 C 3.214844 21.734375 2.921875 22.691406 3.035156 23.613281 C 3.113281 22.941406 3.40625 22.289062 3.925781 21.769531 L 21.769531 3.925781 C 22.386719 3.308594 23.195312 3 24 3 C 24.804688 3 25.613281 3.308594 26.230469 3.925781 L 44.074219 21.769531 C 44.59375 22.289062 44.886719 22.941406 44.964844 23.613281 C 45.078125 22.691406 44.785156 21.734375 44.074219 21.019531 L 26.230469 3.175781 C 25.613281 2.558594 24.804688 2.25 24 2.25 Z M 24 2.25 "/>
</g>
<mask id="mask2">
  <g filter="url(#alpha)">
<rect x="0" y="0" width="48" height="48" style="fill:rgb(0%,0%,0%);fill-opacity:0.2;stroke:none;"/>
  </g>
</mask>
<clipPath id="clip3">
  <rect x="0" y="0" width="48" height="48"/>
</clipPath>
<g id="surface11" clip-path="url(#clip3)">
<path style=" stroke:none;fill-rule:evenodd;fill:rgb(0%,0%,0%);fill-opacity:1;" d="M 24 8.25 C 20.152344 8.25 17.0625 9.140625 14.835938 10.875 C 14.789062 10.914062 14.75 10.957031 14.703125 10.992188 L 13.414062 12.28125 C 12.121094 13.894531 11.464844 15.90625 11.613281 17.855469 C 12.007812 22.988281 17.121094 27 24 27 C 28.671875 27 30.359375 29.390625 30.460938 30.621094 C 30.511719 31.238281 30.394531 31.730469 29.546875 32.386719 C 28.699219 33.042969 26.945312 33.75 24 33.75 C 19.894531 33.75 14.988281 31.144531 14.988281 31.144531 C 14.191406 30.675781 13.222656 30.601562 12.359375 30.941406 C 11.5 31.28125 10.847656 32 10.585938 32.890625 L 15.824219 38.128906 C 18 38.949219 20.898438 39.75 24 39.75 C 27.796875 39.75 30.84375 38.894531 33.070312 37.234375 L 34.832031 35.472656 C 36.003906 33.898438 36.59375 31.984375 36.441406 30.128906 C 36.015625 24.988281 30.878906 21 24 21 C 19.328125 21 17.691406 18.636719 17.597656 17.394531 C 17.550781 16.777344 17.679688 16.269531 18.523438 15.609375 C 19.367188 14.953125 21.097656 14.25 24 14.25 C 28.105469 14.25 33.011719 16.855469 33.011719 16.855469 C 33.808594 17.324219 34.777344 17.398438 35.640625 17.058594 C 36.5 16.71875 37.152344 16 37.414062 15.109375 L 32.175781 9.871094 C 30 9.050781 27.101562 8.25 24 8.25 Z M 24 8.25 "/>
</g>
</defs>
<g id="surface1">
<use xlink:href="#surface5" mask="url(#mask0)"/>
<path style=" stroke:none;fill-rule:nonzero;fill:rgb(40%,71.764706%,26.666667%);fill-opacity:1;" d="M 44.074219 21.023438 L 26.230469 3.183594 C 25 1.949219 23 1.949219 21.769531 3.183594 L 3.925781 21.023438 C 2.695312 22.257812 2.695312 24.253906 3.925781 25.484375 L 21.769531 43.328125 C 23 44.558594 25 44.558594 26.230469 43.328125 L 44.074219 25.484375 C 45.304688 24.253906 45.304688 22.257812 44.074219 21.023438 Z M 44.074219 21.023438 "/>
<use xlink:href="#surface8" mask="url(#mask1)"/>
<use xlink:href="#surface11" mask="url(#mask2)"/>
<path style=" stroke:none;fill-rule:evenodd;fill:rgb(100%,100%,100%);fill-opacity:1;" d="M 24 7.5 C 20.152344 7.5 17.0625 8.390625 14.835938 10.125 C 14.789062 10.164062 14.75 10.207031 14.703125 10.242188 L 13.414062 11.53125 C 12.121094 13.144531 11.464844 15.15625 11.613281 17.105469 C 12.007812 22.238281 17.121094 26.25 24 26.25 C 28.671875 26.25 30.359375 28.640625 30.460938 29.871094 C 30.511719 30.488281 30.394531 30.980469 29.546875 31.636719 C 28.699219 32.292969 26.945312 33 24 33 C 19.894531 33 14.988281 30.394531 14.988281 30.394531 C 14.191406 29.925781 13.222656 29.851562 12.359375 30.191406 C 11.5 30.53125 10.847656 31.25 10.585938 32.140625 L 15.824219 37.378906 C 18 38.199219 20.898438 39 24 39 C 27.796875 39 30.84375 38.144531 33.070312 36.484375 L 34.832031 34.722656 C 36.003906 33.148438 36.59375 31.234375 36.441406 29.378906 C 36.015625 24.238281 30.878906 20.25 24 20.25 C 19.328125 20.25 17.691406 17.886719 17.597656 16.644531 C 17.550781 16.027344 17.679688 15.519531 18.523438 14.859375 C 19.367188 14.203125 21.097656 13.5 24 13.5 C 28.105469 13.5 33.011719 16.105469 33.011719 16.105469 C 33.808594 16.574219 34.777344 16.648438 35.640625 16.308594 C 36.5 15.96875 37.152344 15.25 37.414062 14.359375 L 32.175781 9.121094 C 30 8.300781 27.101562 7.5 24 7.5 Z M 24 7.5 "/>
</g>
</svg>
