<?xml version="1.0" encoding="UTF-8"?>
<svg xmlns="http://www.w3.org/2000/svg" xmlns:xlink="http://www.w3.org/1999/xlink" width="48px" height="48px" viewBox="0 0 48 29" version="1.1">
<g id="surface1">
<path style=" stroke:none;fill-rule:nonzero;fill:rgb(2.352941%,71.372549%,83.137255%);fill-opacity:1;" d="M 24 0 C 17.601562 0 13.605469 3.222656 12.003906 9.667969 C 14.402344 6.445312 17.203125 5.234375 20.402344 6.042969 C 22.226562 6.5 23.53125 7.835938 24.976562 9.3125 C 27.328125 11.714844 30.050781 14.5 35.996094 14.5 C 42.394531 14.5 46.390625 11.277344 47.992188 4.832031 C 45.589844 8.054688 42.792969 9.261719 39.59375 8.457031 C 37.769531 8 36.464844 6.664062 35.019531 5.1875 C 32.667969 2.785156 29.945312 0 24 0 Z M 12.003906 14.5 C 5.605469 14.5 1.609375 17.722656 0.0078125 24.167969 C 2.410156 20.945312 5.207031 19.734375 8.40625 20.542969 C 10.230469 21 11.535156 22.335938 12.980469 23.8125 C 15.332031 26.214844 18.054688 29 24 29 C 30.398438 29 34.394531 25.777344 35.996094 19.332031 C 33.597656 22.554688 30.796875 23.765625 27.597656 22.957031 C 25.773438 22.5 24.46875 21.164062 23.023438 19.6875 C 20.671875 17.285156 17.949219 14.5 12.003906 14.5 Z M 12.003906 14.5 "/>
</g>
</svg>
